<?xml version="1.0" encoding="UTF-8" standalone="no"?>
<!-- Created with Inkscape (http://www.inkscape.org/) -->

<svg
   xmlns:dc="http://purl.org/dc/elements/1.1/"
   xmlns:cc="http://creativecommons.org/ns#"
   xmlns:rdf="http://www.w3.org/1999/02/22-rdf-syntax-ns#"
   xmlns:svg="http://www.w3.org/2000/svg"
   xmlns="http://www.w3.org/2000/svg"
   xmlns:xlink="http://www.w3.org/1999/xlink"
   xmlns:sodipodi="http://sodipodi.sourceforge.net/DTD/sodipodi-0.dtd"
   xmlns:inkscape="http://www.inkscape.org/namespaces/inkscape"
   id="svg2"
   sodipodi:version="0.32"
   inkscape:version="0.47 r22583"
   width="1600"
   height="1200"
   version="1.0"
   sodipodi:docname="standard.svg"
   inkscape:export-filename="standard.png"
   inkscape:export-xdpi="115.2"
   inkscape:export-ydpi="115.2">
  <metadata
     id="metadata7">
    <rdf:RDF>
      <cc:Work
         rdf:about="">
        <dc:format>image/svg+xml</dc:format>
        <dc:type
           rdf:resource="http://purl.org/dc/dcmitype/StillImage" />
        <dc:title></dc:title>
      </cc:Work>
    </rdf:RDF>
  </metadata>
  <defs
     id="defs5">
    <inkscape:perspective
       sodipodi:type="inkscape:persp3d"
       inkscape:vp_x="0 : 600 : 1"
       inkscape:vp_y="0 : 1000 : 0"
       inkscape:vp_z="1600 : 600 : 1"
       inkscape:persp3d-origin="800 : 400 : 1"
       id="perspective24" />
    <clipPath
       id="clipPath3901"
       clipPathUnits="userSpaceOnUse">
      <rect
         style="fill:#55c4cb;fill-opacity:0.41237117;fill-rule:evenodd;stroke:none"
         id="rect3903"
         width="444.28568"
         height="585.91718"
         x="101.01015"
         y="339.92349"
         ry="290.4332"
         rx="68.643211" />
    </clipPath>
    <marker
       style="overflow:visible"
       id="Arrow1Mend"
       refX="0"
       refY="0"
       orient="auto"
       inkscape:stockid="Arrow1Mend">
      <path
         transform="matrix(-0.4,0,0,-0.4,-4,0)"
         style="fill-rule:evenodd;stroke:#000000;stroke-width:1pt;marker-start:none"
         d="M 0,0 5,-5 -12.5,0 5,5 0,0 z"
         id="path3641" />
    </marker>
    <marker
       style="overflow:visible"
       id="Arrow1Lend"
       refX="0"
       refY="0"
       orient="auto"
       inkscape:stockid="Arrow1Lend">
      <path
         transform="matrix(-0.8,0,0,-0.8,-10,0)"
         style="fill-rule:evenodd;stroke:#000000;stroke-width:1pt;marker-start:none"
         d="M 0,0 5,-5 -12.5,0 5,5 0,0 z"
         id="path3635" />
    </marker>
  </defs>
  <sodipodi:namedview
     inkscape:window-height="822"
     inkscape:window-width="1214"
     inkscape:pageshadow="2"
     inkscape:pageopacity="0.0"
     guidetolerance="10.0"
     gridtolerance="10.0"
     objecttolerance="10.0"
     borderopacity="1.0"
     bordercolor="#666666"
     pagecolor="#ffffff"
     id="base"
     inkscape:zoom="0.35355339"
     inkscape:cx="660.05145"
     inkscape:cy="490.89476"
     inkscape:window-x="220"
     inkscape:window-y="25"
     inkscape:current-layer="svg2"
     showgrid="false"
     inkscape:window-maximized="0" />
  <image
     sodipodi:absref="/coda/coda.cs.cmu.edu/usr/bgilbert/pocket-isr/artwork/goddard.jpg"
     xlink:href="goddard.jpg"
     y="0"
     x="0"
     id="image9"
     height="1200"
     width="1600" />
  <g
     id="g3637"
     style="opacity:0.3">
    <g
       style="fill:#315383;fill-opacity:1"
       id="g3626">
      <path
         sodipodi:nodetypes="csssssssssssscccscsssccsssccsssccsssssssssssscccssssssssssssssccssssssssssc"
         id="path2567"
         d="m 207.51435,1096.4407 c 1.99194,-3.3215 1.88443,-10.655 4.18762,-15.0712 5.69942,-10.9282 5.30449,-14.036 -2.08518,-16.4093 -4.7821,-1.5359 -5.23682,-2.3202 -1.88037,-3.2436 2.4348,-0.6698 6.13931,-5.5819 8.23216,-10.9159 4.07387,-10.3827 4.12688,-10.4131 12.468,-7.1519 4.96124,1.9398 4.74244,2.3433 -2.21707,4.0901 -7.03618,1.7659 -8.2189,7.3801 -1.55474,7.3801 1.54179,0 2.02361,-1.2615 1.07076,-2.8033 -3.11989,-5.048 3.21562,-2.9362 8.40977,2.8033 2.87735,3.1794 3.67222,5.6065 1.83608,5.6065 -1.78077,0 -3.23771,1.4717 -3.23771,3.2705 0,1.7987 0.78091,2.4895 1.73533,1.5351 5.93456,-5.9346 17.00594,21.2827 15.14971,37.2433 l -1.46711,12.6146 -16.78566,1.4016 c -22.83585,7.5967 -29.66448,-10.6741 -23.86159,-20.3499 z m 29.18262,-51.4885 c 0.9625,-2.5081 0.31223,-6.2925 -1.44494,-8.4097 -3.55512,-4.2837 -0.36938,-5.0729 5.49001,-1.3599 2.9589,1.875 3.09138,3.7157 0.6022,8.3668 -3.74221,6.9924 -7.19173,8.0337 -4.64727,1.4028 z m 8.66137,-1.0463 c 0.95285,-1.5418 2.28877,-2.8032 2.9687,-2.8032 0.67991,0 1.23619,1.2614 1.23619,2.8032 0,1.5418 -1.33595,2.8033 -2.96871,2.8033 -1.63279,0 -2.18909,-1.2615 -1.23618,-2.8033 z M 217.5737,1031.656 c 1.27439,-3.3211 0.60116,-4.1817 -2.37739,-3.0387 -2.28535,0.877 -4.85232,-0.222 -5.70437,-2.4424 -0.90324,-2.3538 -10.51292,-6.0312 -23.04879,-8.8201 -21.37577,-4.7557 -21.46657,-4.8142 -15.7494,-10.1405 10.04763,-8.53247 10.08253,8.5196 31.68898,6.4703 10.054,-2.0164 -17.79371,-50.86844 -47.21578,-82.82864 -8.27211,-8.98568 -17.52045,-21.19939 -20.55192,-27.14157 -3.0315,-5.94221 -6.73374,-11.55921 -8.2272,-12.48221 -1.49341,-0.923 -6.12706,-7.94665 -10.29693,-15.60812 -4.55005,-8.35994 -9.50809,-13.92993 -12.3994,-13.92993 -6.229768,0 -10.03749,-4.93278 -11.901348,-15.41792 C 90.967928,841.65084 85.575496,826.53157 79.806951,812.67787 22.36586,674.72781 73.947777,542.72776 198.15932,509.80966 c 8.99974,-2.38507 30.87001,-5.06513 48.60065,-5.95567 38.94962,-1.95631 67.11928,3.90758 102.3189,21.29905 65.2009,32.21451 102.88093,101.18084 98.73648,180.71903 -2.59388,49.78004 -16.32108,87.2006 -50.86434,138.65693 -39.20945,58.40715 -54.37026,71.97066 -100.2896,89.72338 l -23.90876,9.2433 -1.66929,17.87635 c -1.57644,16.88164 1.22525,32.70562 6.89504,38.94327 3.32702,3.6602 3.0542,12.7548 -0.38262,12.7548 -1.54179,0 -2.80326,1.2615 -2.80326,2.8032 0,1.5418 2.02895,2.8033 4.50882,2.8033 3.37316,0 4.07874,1.7132 2.80152,6.8023 -1.06863,4.2576 -0.39579,7.2531 1.79851,8.0074 1.92823,0.6629 0.98288,0.7727 -2.1007,0.2442 -3.08359,-0.5286 -8.57977,-0.9783 -12.21374,-0.9993 -4.73185,-0.028 -6.1464,-1.2393 -4.98358,-4.2695 1.17117,-3.052 -0.56146,-2.6157 -6.21678,1.5654 -6.72693,4.9734 -8.89376,5.3168 -15.25705,2.4175 -5.73294,-2.6121 -8.32806,-2.6228 -11.43185,-0.047 -3.12578,2.5941 -4.2852,2.5302 -5.23369,-0.2887 -0.97634,-2.9019 -2.15682,-2.8464 -5.94327,0.2795 -4.12752,3.4074 -4.50013,3.3147 -2.94701,-0.7326 z m 41.0572,-36.53027 c 1.13271,-1.69404 2.07884,-8.36686 2.10244,-14.82848 0.0224,-6.46162 1.30436,-12.52804 2.84618,-13.48093 4.24222,-2.62183 3.46062,-18.22118 -0.913,-18.22118 -5.45847,0 -15.86086,12.06582 -18.41429,21.35887 -1.88519,6.86123 -3.44397,7.94054 -10.36777,7.17864 -4.4819,-0.49318 -8.56945,-2.07001 -9.08337,-3.50407 -0.51392,-1.43407 -2.16518,-2.60737 -3.66952,-2.60737 -1.50429,0 -1.84309,1.44326 -0.75287,3.20724 1.09019,1.76398 1.88527,6.61521 1.76684,10.78054 -0.19427,6.82678 1.07751,7.83077 12.90034,10.18542 17.76383,3.53788 21.18007,3.52793 23.58502,-0.0687 z"
         style="fill:#315383;fill-opacity:1" />
    </g>
    <path
       style="fill:#0f244b;fill-opacity:1"
       d="m 210.48006,1113.0274 c -3.32105,-3.3195 -0.11942,-24.398 4.87467,-32.0931 3.26453,-5.0302 3.49045,-7.9091 1.04228,-13.2823 -4.16245,-9.1355 -1.4425,-16.8275 4.27303,-12.084 3.24208,2.6907 4.62857,2.5601 6.68078,-0.6293 2.22158,-3.4527 2.95113,-3.4632 5.1335,-0.074 1.3991,2.1729 1.94389,5.5143 1.2105,7.4254 -0.73333,1.9111 0.014,4.3075 1.66102,5.3254 1.64688,1.0178 2.99435,4.3735 2.99435,7.4571 0,3.0836 1.26382,4.8254 2.80847,3.8708 6.67252,-4.1239 10.64252,28.1341 4.2493,34.527 -2.74798,2.7479 -32.10808,2.3754 -34.9279,-0.443 z m 25.06488,-30.5767 c 0.001,-1.1563 -2.20557,-2.1217 -4.90371,-2.1453 -4.1627,-0.036 -4.27239,-0.4434 -0.72425,-2.6866 3.2996,-2.086 3.45723,-3.3678 0.74752,-6.0775 -4.09559,-4.0956 -4.98902,-3.3133 -7.31653,6.4067 -1.57238,6.5665 -0.97865,7.3651 5.21016,7.0081 3.84164,-0.2217 6.98572,-1.349 6.98681,-2.5054 z m 12.30221,-49.6179 c -1.36888,-1.2731 -9.92765,-3.0863 -19.01957,-4.0293 -9.09195,-0.943 -18.1569,-3.0641 -20.14444,-4.7136 -1.98748,-1.6495 -7.16331,-4.1736 -11.50183,-5.609 -7.08282,-2.3436 -6.78968,-2.4807 2.87177,-1.3432 9.30015,1.095 10.48481,0.6197 8.73201,-3.5028 -6.49829,-15.28371 -8.91562,-24.50021 -6.64285,-25.32692 4.26463,-1.55127 2.93269,-17.3231 -1.61016,-19.06636 -2.29845,-0.88199 -8.71589,-7.78406 -14.26094,-15.33792 -5.54501,-7.55388 -12.8101,-14.47673 -16.14458,-15.38411 -3.3345,-0.90739 -9.91375,-7.5265 -14.62053,-14.70912 -4.70681,-7.18262 -10.16181,-12.71269 -12.12224,-12.28904 -1.96043,0.42363 -2.76542,-0.52247 -1.78893,-2.10244 0.97649,-1.58 0.64915,-2.87272 -0.72733,-2.87272 -2.47654,0 -19.49302,-23.69609 -25.56446,-35.59939 -1.72953,-3.39085 -6.60352,-7.84946 -10.83103,-9.90801 -6.826246,-3.32396 -7.587723,-5.05696 -6.804745,-15.48581 0.484908,-6.45866 -0.422843,-13.98398 -2.017225,-16.72295 -2.697771,-4.63452 -2.920967,-4.59104 -3.217411,0.62655 -9.195221,-4.58299 -5.564244,-12.24584 0.261824,-18.70143 16.670807,12.80377 69.210797,11.63004 75.665967,0.35189 6.9964,-12.2238 0.17913,-80.05119 -7.88492,-86.82179 -2.64695,-2.22237 -19.10678,-1.81029 -29.68987,5.20531 -6.82201,4.52233 -6.23685,15.09869 -14.51191,18.43143 -6.81085,2.74307 -18.663137,-7.13505 -25.342096,-6.96189 -7.746636,0.20099 -10.000344,10.50137 -12.573315,15.52696 -0.164551,4.31604 -11.050669,13.35694 -13.986773,1.48643 -11.352104,-151.10199 58.960544,-255.5503 203.012144,-248.69056 37.59707,3.04089 98.60685,27.32966 125.30573,60.96708 34.44512,43.39685 51.93617,115.83468 38.46323,172.11558 -9.76964,39.48513 -17.98203,79.26673 -58.21619,133.13647 -26.13896,34.99762 -40.88328,45.33334 -90.43508,63.39474 -8.33078,3.03654 -13.33154,6.54735 -13.35837,9.3783 -0.0356,3.76497 -0.46632,3.85594 -2.56403,0.54162 -3.88506,-6.13827 -16.65999,3.5358 -22.24895,16.84851 -3.73745,8.90239 -5.99424,10.91064 -12.28727,10.93391 -4.99625,0.0196 -7.70896,-1.45116 -7.70896,-4.17638 0,-2.31269 -1.37237,-4.20489 -3.0497,-4.20489 -1.97248,0 -2.47878,4.208 -1.43347,11.91385 l 1.61619,11.91385 -3.87907,-11.21303 -3.87912,-11.21304 -0.29397,11.68025 c -0.16568,6.58444 -1.82268,12.21596 -3.79797,12.90817 -1.92724,0.67536 8.16446,2.17586 22.42607,3.33445 14.26157,1.15861 25.93014,3.36905 25.93014,4.91215 0,1.543 1.89217,2.0795 4.20488,1.192 2.31266,-0.8875 4.20489,-0.4794 4.20489,0.9067 0,1.3862 2.65045,2.9234 5.88998,3.4161 5.15116,0.7834 4.14471,2.5442 -8.02343,14.037 -7.65233,7.2277 -15.03331,12.0995 -16.40217,10.8264 z m 20.60471,-34.91365 c -2.31269,-2.31269 -5.18678,-3.31886 -6.38692,-2.23594 -1.20007,1.08293 -1.35024,-0.34177 -0.33372,-3.16603 1.01657,-2.82422 1.93677,-9.13155 2.04486,-14.01629 0.17352,-7.84391 0.80714,-7.08635 5.42369,6.48582 5.73129,16.84919 5.59118,19.27149 -0.74791,12.93244 z M 173.87525,948.4297 c 0,-1.63279 1.26144,-2.18907 2.80326,-1.23619 1.54176,0.95289 2.80326,2.28881 2.80326,2.96871 0,0.6799 -1.2615,1.23618 -2.80326,1.23618 -1.54182,0 -2.80326,-1.33592 -2.80326,-2.9687 z"
       id="path2565"
       sodipodi:nodetypes="cssssssssssccsssssccsssssssssssssssssccssssscccscsssssssscccccsssssssccssssccsssc" />
  </g>
  <flowRoot
     xml:space="preserve"
     id="flowRoot3596"
     style="font-size:144px;font-family:hlv"
     transform="translate(-752.6089,-418.0564)"><flowRegion
       id="flowRegion3598"><rect
         id="rect3600"
         width="375.71429"
         height="158.57143"
         x="44.285713"
         y="210.93361"
         style="font-size:144px;font-family:hlv" /></flowRegion><flowPara
       id="flowPara3602">HFRR</flowPara></flowRoot></svg>
