<?xml version="1.0" encoding="UTF-8" standalone="no"?>
<!-- Created with Inkscape (http://www.inkscape.org/) -->

<svg
   xmlns:dc="http://purl.org/dc/elements/1.1/"
   xmlns:cc="http://creativecommons.org/ns#"
   xmlns:rdf="http://www.w3.org/1999/02/22-rdf-syntax-ns#"
   xmlns:svg="http://www.w3.org/2000/svg"
   xmlns="http://www.w3.org/2000/svg"
   xmlns:xlink="http://www.w3.org/1999/xlink"
   xmlns:sodipodi="http://sodipodi.sourceforge.net/DTD/sodipodi-0.dtd"
   xmlns:inkscape="http://www.inkscape.org/namespaces/inkscape"
   id="svg2"
   sodipodi:version="0.32"
   inkscape:version="0.47 r22583"
   width="1600"
   height="1200"
   version="1.0"
   sodipodi:docname="standard.svg"
   inkscape:export-filename="standard.png"
   inkscape:export-xdpi="115.2"
   inkscape:export-ydpi="115.2">
  <metadata
     id="metadata7">
    <rdf:RDF>
      <cc:Work
         rdf:about="">
        <dc:format>image/svg+xml</dc:format>
        <dc:type
           rdf:resource="http://purl.org/dc/dcmitype/StillImage" />
        <dc:title></dc:title>
      </cc:Work>
    </rdf:RDF>
  </metadata>
  <defs
     id="defs5">
    <inkscape:perspective
       sodipodi:type="inkscape:persp3d"
       inkscape:vp_x="0 : 600 : 1"
       inkscape:vp_y="0 : 1000 : 0"
       inkscape:vp_z="1600 : 600 : 1"
       inkscape:persp3d-origin="800 : 400 : 1"
       id="perspective24" />
    <clipPath
       id="clipPath3901"
       clipPathUnits="userSpaceOnUse">
      <rect
         style="fill:#55c4cb;fill-opacity:0.41237117;fill-rule:evenodd;stroke:none"
         id="rect3903"
         width="444.28568"
         height="585.91718"
         x="101.01015"
         y="339.92349"
         ry="290.4332"
         rx="68.643211" />
    </clipPath>
    <marker
       style="overflow:visible"
       id="Arrow1Mend"
       refX="0"
       refY="0"
       orient="auto"
       inkscape:stockid="Arrow1Mend">
      <path
         transform="matrix(-0.4,0,0,-0.4,-4,0)"
         style="fill-rule:evenodd;stroke:#000000;stroke-width:1pt;marker-start:none"
         d="M 0,0 5,-5 -12.5,0 5,5 0,0 z"
         id="path3641" />
    </marker>
    <marker
       style="overflow:visible"
       id="Arrow1Lend"
       refX="0"
       refY="0"
       orient="auto"
       inkscape:stockid="Arrow1Lend">
      <path
         transform="matrix(-0.8,0,0,-0.8,-10,0)"
         style="fill-rule:evenodd;stroke:#000000;stroke-width:1pt;marker-start:none"
         d="M 0,0 5,-5 -12.5,0 5,5 0,0 z"
         id="path3635" />
    </marker>
  </defs>
  <sodipodi:namedview
     inkscape:window-height="974"
     inkscape:window-width="1280"
     inkscape:pageshadow="2"
     inkscape:pageopacity="0.0"
     guidetolerance="10.0"
     gridtolerance="10.0"
     objecttolerance="10.0"
     borderopacity="1.0"
     bordercolor="#666666"
     pagecolor="#ffffff"
     id="base"
     inkscape:zoom="0.58980252"
     inkscape:cx="870.92695"
     inkscape:cy="584.50311"
     inkscape:window-x="1600"
     inkscape:window-y="0"
     inkscape:current-layer="svg2"
     showgrid="false"
     inkscape:window-maximized="1"
     showguides="true"
     inkscape:guide-bbox="true" />
  <image
     sodipodi:absref="/coda/coda.cs.cmu.edu/usr/bgilbert/pocket-isr/artwork/laughlin.png"
     xlink:href="laughlin.png"
     width="1600"
     height="1200"
     id="image9"
     x="0"
     y="0" />
  <g
     id="g3642"
     style="opacity:0.55"
     transform="translate(-19.563858,-675.75696)">
    <g
       transform="matrix(0.71619431,0,0,0.71619431,15.46114,347.09203)"
       style="fill:#215f95;fill-opacity:1"
       id="g3626">
      <path
         sodipodi:nodetypes="csssssssssssscccscsssccsssccsssccsssssssssssscccssssssssssssssccssssssssssc"
         id="path2567"
         d="m 207.51435,1096.4407 c 1.99194,-3.3215 1.88443,-10.655 4.18762,-15.0712 5.69942,-10.9282 5.30449,-14.036 -2.08518,-16.4093 -4.7821,-1.5359 -5.23682,-2.3202 -1.88037,-3.2436 2.4348,-0.6698 6.13931,-5.5819 8.23216,-10.9159 4.07387,-10.3827 4.12688,-10.4131 12.468,-7.1519 4.96124,1.9398 4.74244,2.3433 -2.21707,4.0901 -7.03618,1.7659 -8.2189,7.3801 -1.55474,7.3801 1.54179,0 2.02361,-1.2615 1.07076,-2.8033 -3.11989,-5.048 3.21562,-2.9362 8.40977,2.8033 2.87735,3.1794 3.67222,5.6065 1.83608,5.6065 -1.78077,0 -3.23771,1.4717 -3.23771,3.2705 0,1.7987 0.78091,2.4895 1.73533,1.5351 5.93456,-5.9346 17.00594,21.2827 15.14971,37.2433 l -1.46711,12.6146 -16.78566,1.4016 c -22.83585,7.5967 -29.66448,-10.6741 -23.86159,-20.3499 z m 29.18262,-51.4885 c 0.9625,-2.5081 0.31223,-6.2925 -1.44494,-8.4097 -3.55512,-4.2837 -0.36938,-5.0729 5.49001,-1.3599 2.9589,1.875 3.09138,3.7157 0.6022,8.3668 -3.74221,6.9924 -7.19173,8.0337 -4.64727,1.4028 z m 8.66137,-1.0463 c 0.95285,-1.5418 2.28877,-2.8032 2.9687,-2.8032 0.67991,0 1.23619,1.2614 1.23619,2.8032 0,1.5418 -1.33595,2.8033 -2.96871,2.8033 -1.63279,0 -2.18909,-1.2615 -1.23618,-2.8033 z M 217.5737,1031.656 c 1.27439,-3.3211 0.60116,-4.1817 -2.37739,-3.0387 -2.28535,0.877 -4.85232,-0.222 -5.70437,-2.4424 -0.90324,-2.3538 -10.51292,-6.0312 -23.04879,-8.8201 -21.37577,-4.7557 -21.46657,-4.8142 -15.7494,-10.1405 10.04763,-8.53247 10.08253,8.5196 31.68898,6.4703 10.054,-2.0164 -17.79371,-50.86844 -47.21578,-82.82864 -8.27211,-8.98568 -17.52045,-21.19939 -20.55192,-27.14157 -3.0315,-5.94221 -6.73374,-11.55921 -8.2272,-12.48221 -1.49341,-0.923 -6.12706,-7.94665 -10.29693,-15.60812 -4.55005,-8.35994 -9.50809,-13.92993 -12.3994,-13.92993 -6.229768,0 -10.03749,-4.93278 -11.901348,-15.41792 C 90.967928,841.65084 85.575496,826.53157 79.806951,812.67787 22.36586,674.72781 73.947777,542.72776 198.15932,509.80966 c 8.99974,-2.38507 30.87001,-5.06513 48.60065,-5.95567 38.94962,-1.95631 67.11928,3.90758 102.3189,21.29905 65.2009,32.21451 102.88093,101.18084 98.73648,180.71903 -2.59388,49.78004 -16.32108,87.2006 -50.86434,138.65693 -39.20945,58.40715 -54.37026,71.97066 -100.2896,89.72338 l -23.90876,9.2433 -1.66929,17.87635 c -1.57644,16.88164 1.22525,32.70562 6.89504,38.94327 3.32702,3.6602 3.0542,12.7548 -0.38262,12.7548 -1.54179,0 -2.80326,1.2615 -2.80326,2.8032 0,1.5418 2.02895,2.8033 4.50882,2.8033 3.37316,0 4.07874,1.7132 2.80152,6.8023 -1.06863,4.2576 -0.39579,7.2531 1.79851,8.0074 1.92823,0.6629 0.98288,0.7727 -2.1007,0.2442 -3.08359,-0.5286 -8.57977,-0.9783 -12.21374,-0.9993 -4.73185,-0.028 -6.1464,-1.2393 -4.98358,-4.2695 1.17117,-3.052 -0.56146,-2.6157 -6.21678,1.5654 -6.72693,4.9734 -8.89376,5.3168 -15.25705,2.4175 -5.73294,-2.6121 -8.32806,-2.6228 -11.43185,-0.047 -3.12578,2.5941 -4.2852,2.5302 -5.23369,-0.2887 -0.97634,-2.9019 -2.15682,-2.8464 -5.94327,0.2795 -4.12752,3.4074 -4.50013,3.3147 -2.94701,-0.7326 z m 41.0572,-36.53027 c 1.13271,-1.69404 2.07884,-8.36686 2.10244,-14.82848 0.0224,-6.46162 1.30436,-12.52804 2.84618,-13.48093 4.24222,-2.62183 3.46062,-18.22118 -0.913,-18.22118 -5.45847,0 -15.86086,12.06582 -18.41429,21.35887 -1.88519,6.86123 -3.44397,7.94054 -10.36777,7.17864 -4.4819,-0.49318 -8.56945,-2.07001 -9.08337,-3.50407 -0.51392,-1.43407 -2.16518,-2.60737 -3.66952,-2.60737 -1.50429,0 -1.84309,1.44326 -0.75287,3.20724 1.09019,1.76398 1.88527,6.61521 1.76684,10.78054 -0.19427,6.82678 1.07751,7.83077 12.90034,10.18542 17.76383,3.53788 21.18007,3.52793 23.58502,-0.0687 z"
         style="fill:#215f95;fill-opacity:1" />
    </g>
    <path
       style="fill:#0a2540;fill-opacity:1"
       d="m 166.20576,1144.2359 c -2.37852,-2.3774 -0.0855,-17.4737 3.49121,-22.9849 2.33804,-3.6026 2.49984,-5.6644 0.74648,-9.5127 -2.98113,-6.5428 -1.03311,-12.0517 3.06032,-8.6545 2.32196,1.9271 3.31495,1.8336 4.78473,-0.4507 1.59109,-2.4728 2.11359,-2.4803 3.67659,-0.053 1.00202,1.5562 1.3922,3.9493 0.86695,5.3181 -0.52521,1.3687 0.01,3.085 1.18961,3.814 1.17949,0.7289 2.14454,3.1323 2.14454,5.3407 0,2.2085 0.90514,3.4559 2.01141,2.7723 4.77882,-2.9536 7.62211,20.1494 3.04332,24.728 -1.96808,1.968 -22.99562,1.7012 -25.01516,-0.3173 z m 17.95133,-21.8988 c 7.1e-4,-0.8282 -1.57962,-1.5196 -3.51201,-1.5365 -2.98131,-0.026 -3.05986,-0.3176 -0.51871,-1.9241 2.36316,-1.494 2.47605,-2.412 0.53537,-4.3527 -2.93324,-2.9332 -3.57311,-2.373 -5.24005,4.5885 -1.12613,4.7028 -0.70091,5.2748 3.73148,5.0191 2.75136,-0.1588 5.00314,-0.9661 5.00392,-1.7943 z m 8.81077,-35.5361 c -0.98039,-0.9118 -7.11013,-2.2104 -13.62171,-2.8858 -6.5116,-0.6753 -13.00387,-2.1944 -14.42733,-3.3758 -1.42342,-1.1814 -5.13032,-2.9891 -8.23755,-4.0171 -5.07267,-1.6785 -4.86273,-1.7767 2.05675,-0.962 6.66071,0.7842 7.50916,0.4438 6.25381,-2.5087 -4.65403,-10.9461 -6.38531,-17.5469 -4.75757,-18.139 3.05431,-1.111 2.10038,-12.4067 -1.15319,-13.6552 -1.64613,-0.6317 -6.24227,-5.5749 -10.2136,-10.985 -3.9713,-5.41 -9.17452,-10.3681 -11.56266,-11.018 -2.38815,-0.6498 -7.10017,-5.3904 -10.47114,-10.5346 -3.37099,-5.1441 -7.27783,-9.10472 -8.68188,-8.80131 -1.40404,0.30341 -1.98057,-0.37419 -1.28122,-1.50575 0.69936,-1.13159 0.46492,-2.05743 -0.52091,-2.05743 -1.77368,0 -13.96079,-16.971 -18.309117,-25.49608 -1.23868,-2.42851 -4.729404,-5.62174 -7.757122,-7.09606 -4.888919,-2.3806 -5.434284,-3.62177 -4.87352,-11.09085 0.347288,-4.62566 -0.302838,-10.01525 -1.444725,-11.97688 -1.932128,-3.31922 -2.09198,-3.28808 -2.304292,0.44873 -6.585565,-3.28231 -3.985079,-8.7704 0.187517,-13.39386 11.939537,9.16999 49.568379,8.32937 54.191539,0.25202 5.01078,-8.75461 0.12829,-57.3322 -5.64714,-62.18127 -1.89573,-1.59165 -13.68417,-1.29652 -21.26371,3.72802 -4.88589,3.23886 -4.4668,10.81359 -10.393352,13.20048 -4.877892,1.96457 -13.366432,-5.11008 -18.149865,-4.98607 -5.548096,0.14395 -7.162189,7.52103 -9.004936,11.12033 -0.117851,3.09112 -7.914427,9.56616 -10.017248,1.06457 C 53.433377,781.73 103.7909,706.92472 206.95983,711.83762 c 26.92681,2.17787 70.62167,19.57335 89.74325,43.66428 24.6694,31.08058 37.19639,82.96014 27.54715,123.2682 -6.99696,28.27902 -12.87863,56.77038 -41.69411,95.35158 -18.72057,25.0651 -29.28037,32.46752 -64.76908,45.40292 -5.96646,2.1748 -9.54798,4.6892 -9.56719,6.7167 -0.0255,2.6965 -0.33398,2.7616 -1.83635,0.3879 -2.78245,-4.3962 -11.93179,2.5323 -15.93457,12.0668 -2.67674,6.3759 -4.29304,7.8142 -8.80007,7.8308 -3.57829,0.014 -5.52111,-1.0393 -5.52111,-2.9911 0,-1.6563 -0.98289,-3.0115 -2.18418,-3.0115 -1.41268,0 -1.77529,3.0138 -1.02665,8.5326 l 1.15751,8.5327 -2.77817,-8.0307 -2.7782,-8.0307 -0.21054,8.3653 c -0.11866,4.7157 -1.30539,8.749 -2.72009,9.2447 -1.38027,0.4837 5.84734,1.5584 16.06143,2.3882 10.21405,0.8297 18.57102,2.4129 18.57102,3.518 0,1.1051 1.35516,1.4893 3.01151,0.8537 1.65631,-0.6356 3.01152,-0.3433 3.01152,0.6494 0,0.9928 1.89823,2.0937 4.21837,2.4466 3.68923,0.561 2.96841,1.8221 -5.74634,10.0532 -5.48055,5.1764 -10.76677,8.6656 -11.74714,7.7538 z m 14.75697,-25.005 c -1.65633,-1.6563 -3.71474,-2.3769 -4.57427,-1.6013 -0.85948,0.7756 -0.96704,-0.2448 -0.23901,-2.2675 0.72806,-2.0227 1.3871,-6.54 1.46452,-10.0384 0.12427,-5.6178 0.57807,-5.0752 3.88441,4.6451 4.10472,12.0673 4.00437,13.8021 -0.53565,9.2621 z m -67.73523,-35.444 c 0,-1.1694 0.90344,-1.5678 2.00768,-0.8854 1.1042,0.6825 2.00768,1.6393 2.00768,2.1262 0,0.4869 -0.90348,0.8854 -2.00768,0.8854 -1.10424,0 -2.00768,-0.9568 -2.00768,-2.1262 z"
       id="path2565"
       sodipodi:nodetypes="cssssssssssccsssssccsssssssssssssssssccssssscccscsssssssscccccsssssssccssssccsssc" />
  </g>
  <flowRoot
     xml:space="preserve"
     id="flowRoot3596"
     style="font-size:144px;font-family:hlv"
     transform="translate(-752.6089,-418.0564)"><flowRegion
       id="flowRegion3598"><rect
         id="rect3600"
         width="375.71429"
         height="158.57143"
         x="44.285713"
         y="210.93361"
         style="font-size:144px;font-family:hlv" /></flowRegion><flowPara
       id="flowPara3602">HFRR</flowPara></flowRoot></svg>
