<?xml version="1.0" encoding="UTF-8" standalone="no"?>
<!-- Created with Inkscape (http://www.inkscape.org/) -->

<svg
   xmlns:dc="http://purl.org/dc/elements/1.1/"
   xmlns:cc="http://creativecommons.org/ns#"
   xmlns:rdf="http://www.w3.org/1999/02/22-rdf-syntax-ns#"
   xmlns:svg="http://www.w3.org/2000/svg"
   xmlns="http://www.w3.org/2000/svg"
   xmlns:xlink="http://www.w3.org/1999/xlink"
   xmlns:sodipodi="http://sodipodi.sourceforge.net/DTD/sodipodi-0.dtd"
   xmlns:inkscape="http://www.inkscape.org/namespaces/inkscape"
   id="svg2"
   sodipodi:version="0.32"
   inkscape:version="0.47 r22583"
   width="1600"
   height="1200"
   version="1.0"
   sodipodi:docname="constantine-isr.svg"
   inkscape:export-filename="constantine-isr.png"
   inkscape:export-xdpi="115.2"
   inkscape:export-ydpi="115.2">
  <metadata
     id="metadata7">
    <rdf:RDF>
      <cc:Work
         rdf:about="">
        <dc:format>image/svg+xml</dc:format>
        <dc:type
           rdf:resource="http://purl.org/dc/dcmitype/StillImage" />
        <dc:title></dc:title>
      </cc:Work>
    </rdf:RDF>
  </metadata>
  <defs
     id="defs5">
    <inkscape:perspective
       sodipodi:type="inkscape:persp3d"
       inkscape:vp_x="0 : 600 : 1"
       inkscape:vp_y="0 : 1000 : 0"
       inkscape:vp_z="1600 : 600 : 1"
       inkscape:persp3d-origin="800 : 400 : 1"
       id="perspective24" />
    <clipPath
       id="clipPath3901"
       clipPathUnits="userSpaceOnUse">
      <rect
         style="fill:#55c4cb;fill-opacity:0.41237117;fill-rule:evenodd;stroke:none;stroke-width:1;stroke-miterlimit:4;stroke-dasharray:6, 2;stroke-dashoffset:0;stroke-opacity:1"
         id="rect3903"
         width="444.28568"
         height="585.91718"
         x="101.01015"
         y="339.92349"
         ry="290.4332"
         rx="68.643211" />
    </clipPath>
    <marker
       style="overflow:visible;"
       id="Arrow1Mend"
       refX="0.0"
       refY="0.0"
       orient="auto"
       inkscape:stockid="Arrow1Mend">
      <path
         transform="scale(0.4) rotate(180) translate(10,0)"
         style="fill-rule:evenodd;stroke:#000000;stroke-width:1.0pt;marker-start:none;"
         d="M 0.0,0.0 L 5.0,-5.0 L -12.5,0.0 L 5.0,5.0 L 0.0,0.0 z "
         id="path3641" />
    </marker>
    <marker
       style="overflow:visible;"
       id="Arrow1Lend"
       refX="0.0"
       refY="0.0"
       orient="auto"
       inkscape:stockid="Arrow1Lend">
      <path
         transform="scale(0.8) rotate(180) translate(12.5,0)"
         style="fill-rule:evenodd;stroke:#000000;stroke-width:1.0pt;marker-start:none;"
         d="M 0.0,0.0 L 5.0,-5.0 L -12.5,0.0 L 5.0,5.0 L 0.0,0.0 z "
         id="path3635" />
    </marker>
  </defs>
  <sodipodi:namedview
     inkscape:window-height="822"
     inkscape:window-width="1214"
     inkscape:pageshadow="2"
     inkscape:pageopacity="0.0"
     guidetolerance="10.0"
     gridtolerance="10.0"
     objecttolerance="10.0"
     borderopacity="1.0"
     bordercolor="#666666"
     pagecolor="#ffffff"
     id="base"
     inkscape:zoom="0.5"
     inkscape:cx="809.60095"
     inkscape:cy="452.56021"
     inkscape:window-x="0"
     inkscape:window-y="25"
     inkscape:current-layer="svg2"
     showgrid="false"
     inkscape:window-maximized="0" />
  <image
     sodipodi:absref="/home/bgilbert/art/constantine.png"
     xlink:href="constantine.png"
     width="1600"
     height="1200"
     id="image9"
     x="0"
     y="0" />
  <g
     id="g3592"
     transform="matrix(4.814145,0,0,4.814145,-2300.401,-556.0827)"
     style="opacity:0.3">
    <path
       style="fill:#909090;fill-opacity:1"
       d="M 548.16511,344.66349 C 548.87569,343.47864 548.83734,340.86257 549.65895,339.2872 C 551.69209,335.3888 551.55121,334.28016 548.91511,333.43352 C 547.2092,332.88564 547.04699,332.60584 548.24433,332.27646 C 549.11289,332.03752 550.43439,330.28522 551.18097,328.38246 C 552.63423,324.67866 552.65314,324.6678 555.62865,325.83117 C 557.39846,326.52313 557.32041,326.66709 554.83776,327.2902 C 552.32776,327.92017 551.90585,329.92289 554.28314,329.92289 C 554.83314,329.92289 555.00502,329.47289 554.66511,328.92289 C 553.55216,327.12212 555.81221,327.87547 557.66511,329.92289 C 558.69154,331.05708 558.97509,331.92289 558.32009,331.92289 C 557.68484,331.92289 557.16511,332.44789 557.16511,333.08956 C 557.16511,333.73122 557.44368,333.97765 557.78415,333.63718 C 559.90117,331.52015 563.85064,341.22933 563.18847,346.92289 L 562.66511,351.42289 L 556.6772,351.92289 C 548.53102,354.63283 546.09506,348.11514 548.16511,344.66349 z M 558.57536,326.29614 C 558.91871,325.40143 558.68674,324.05143 558.05991,323.29614 C 556.7917,321.76803 557.92814,321.48652 560.01835,322.81103 C 561.07387,323.47989 561.12113,324.13653 560.23317,325.79572 C 558.89822,328.29009 557.66768,328.66154 558.57536,326.29614 z M 561.66511,325.92289 C 562.00502,325.37289 562.48158,324.92289 562.72413,324.92289 C 562.96667,324.92289 563.16511,325.37289 563.16511,325.92289 C 563.16511,326.47289 562.68854,326.92289 562.10609,326.92289 C 561.52363,326.92289 561.32518,326.47289 561.66511,325.92289 z M 551.75356,321.55299 C 552.20817,320.36827 551.96801,320.06129 550.90548,320.46902 C 550.09023,320.78187 549.17452,320.38979 548.87057,319.59775 C 548.54836,318.75807 545.12032,317.44625 540.64843,316.45135 C 533.0231,314.75488 532.99071,314.73402 535.03018,312.83396 C 538.61445,309.7902 538.6269,315.87313 546.33452,315.14209 C 549.92106,314.42279 539.98701,296.99592 529.49134,285.59483 C 526.54045,282.38939 523.24131,278.03242 522.1599,275.91268 C 521.07848,273.79293 519.75779,271.78919 519.22503,271.45993 C 518.69229,271.13067 517.03934,268.62514 515.55183,265.89208 C 513.9287,262.90986 512.16003,260.92289 511.12862,260.92289 C 508.90629,260.92289 507.54797,259.16323 506.88308,255.42289 C 506.58977,253.77289 504.66614,248.37943 502.60834,243.43743 C 482.11751,194.22682 500.51821,147.13874 544.82791,135.39594 C 548.03837,134.54512 555.8401,133.58907 562.16511,133.27139 C 576.05952,132.57352 586.10842,134.66533 598.6651,140.86935 C 621.92407,152.36116 635.36558,176.96336 633.88714,205.33684 C 632.96183,223.09476 628.06496,236.44371 615.74242,254.79961 C 601.75532,275.63506 596.34704,280.47354 579.96634,286.80643 L 571.43742,290.10377 L 570.84194,296.48076 C 570.27958,302.50291 571.27902,308.14776 573.30159,310.37289 C 574.48843,311.6786 574.39111,314.92289 573.1651,314.92289 C 572.6151,314.92289 572.1651,315.37289 572.1651,315.92289 C 572.1651,316.47289 572.88888,316.92289 573.77352,316.92289 C 574.97682,316.92289 575.22852,317.53405 574.7729,319.34945 C 574.39169,320.86825 574.63171,321.93683 575.41448,322.20592 C 576.10233,322.44238 575.7651,322.48157 574.6651,322.29302 C 573.5651,322.10447 571.60446,321.94405 570.30812,321.93654 C 568.62014,321.92677 568.11553,321.49446 568.53034,320.41349 C 568.94813,319.32476 568.33005,319.4804 566.31264,320.97193 C 563.91296,322.74609 563.13999,322.86857 560.87003,321.83431 C 558.82493,320.90249 557.89918,320.8987 556.79197,321.81761 C 555.67692,322.74302 555.26332,322.72021 554.92497,321.71463 C 554.57668,320.67946 554.15557,320.69926 552.80484,321.81433 C 551.33244,323.02984 551.19952,322.9968 551.75356,321.55299 z M 566.3998,308.52164 C 566.80387,307.91733 567.14138,305.53695 567.1498,303.23191 C 567.15822,300.92687 567.6151,298.76281 568.16511,298.42289 C 569.67843,297.48761 569.39961,291.92289 567.83942,291.92289 C 565.89223,291.92289 562.18141,296.2271 561.27053,299.54219 C 560.59803,301.98978 560.04197,302.3748 557.57206,302.10301 C 555.97324,301.92708 554.5151,301.36458 554.33177,300.85301 C 554.14844,300.34144 553.55939,299.92289 553.02275,299.92289 C 552.48613,299.92289 552.36527,300.43774 552.75418,301.067 C 553.14308,301.69626 553.42671,303.42683 553.38446,304.91272 C 553.31521,307.34802 553.76884,307.70617 557.98637,308.54614 C 564.32322,309.8082 565.54189,309.80465 566.3998,308.52164 z "
       id="path2567"
       sodipodi:nodetypes="csssssssssssscccscsssccsssccsssccsssssssssssscccssssssssssssssccssssssssssc" />
    <path
       style="fill:#3f3f3f;fill-opacity:1"
       d="M 549.22306,350.58045 C 548.03835,349.39629 549.18047,341.87698 550.96199,339.13193 C 552.12654,337.33752 552.20713,336.31054 551.3338,334.39378 C 549.84894,331.13489 550.81922,328.39095 552.85811,330.08306 C 554.01465,331.04292 554.50925,330.99633 555.24133,329.85859 C 556.03383,328.62692 556.29408,328.62317 557.07259,329.83221 C 557.57169,330.60733 557.76603,331.79931 557.50441,332.48106 C 557.24281,333.1628 557.50943,334.01766 558.09694,334.38076 C 558.68443,334.74385 559.16511,335.94092 559.16511,337.04092 C 559.16511,338.14092 559.61595,338.76229 560.16697,338.42173 C 562.54724,336.95065 563.96345,348.45797 561.68281,350.73848 C 560.70253,351.71872 550.22897,351.58587 549.22306,350.58045 z M 558.1644,339.67289 C 558.16479,339.26039 557.37761,338.916 556.41511,338.90758 C 554.93016,338.89458 554.89103,338.74943 556.15675,337.94922 C 557.33381,337.20506 557.39004,336.74783 556.42341,335.7812 C 554.9624,334.32018 554.64369,334.59925 553.8134,338.06663 C 553.25249,340.4091 553.46429,340.69399 555.67201,340.56663 C 557.04243,340.48757 558.16401,340.08539 558.1644,339.67289 z M 562.55294,321.9728 C 562.06462,321.51863 559.01147,320.87182 555.76813,320.53543 C 552.52478,320.19904 549.29106,319.44239 548.58205,318.85397 C 547.87306,318.26555 546.0267,317.36514 544.47903,316.85306 C 541.95239,316.01706 542.05696,315.96814 545.50347,316.37392 C 548.82109,316.76452 549.24369,316.59499 548.61842,315.12436 C 546.3003,309.67225 545.43797,306.38447 546.24873,306.08956 C 547.77004,305.53618 547.2949,299.90993 545.67434,299.28806 C 544.85442,298.97343 542.56514,296.51127 540.58707,293.8166 C 538.60901,291.12192 536.01735,288.65235 534.82785,288.32866 C 533.63834,288.00497 531.29134,285.64375 529.6123,283.08151 C 527.93325,280.51927 525.9873,278.54654 525.28796,278.69767 C 524.58862,278.84879 524.30146,278.51129 524.6498,277.94767 C 524.99814,277.38404 524.88137,276.92289 524.39034,276.92289 C 523.50689,276.92289 517.43664,268.46984 515.27079,264.2236 C 514.65382,263.01399 512.91513,261.42348 511.40706,260.68914 C 508.97195,259.50339 508.70031,258.88518 508.97962,255.16492 C 509.1526,252.86094 508.82878,250.17645 508.26002,249.19938 C 507.29765,247.54612 507.21803,247.56163 507.11228,249.42289 C 503.83209,247.78801 505.12736,245.05446 507.20571,242.75157 C 513.15265,247.31903 531.89512,246.90033 534.19786,242.8771 C 536.69367,238.51653 534.26173,214.32062 531.38509,211.90536 C 530.44085,211.11258 524.56917,211.25958 520.79389,213.76224 C 518.36029,215.37548 518.56903,219.14836 515.61709,220.33724 C 513.18747,221.31577 508.95943,217.79197 506.57686,217.85374 C 503.81342,217.92539 503.00946,221.59987 502.09161,223.39264 C 502.03293,224.93229 498.14953,228.15743 497.10214,223.92289 C 493.05253,170.02062 518.135,132.76101 569.5222,135.20807 C 582.93412,136.29284 604.698,144.95732 614.22223,156.95672 C 626.50976,172.43758 632.7493,198.27816 627.94313,218.35512 C 624.45803,232.44056 621.52844,246.63176 607.1758,265.84859 C 597.85131,278.33321 592.5916,282.02025 574.9151,288.46325 C 571.94328,289.54647 570.15937,290.79887 570.1498,291.80875 C 570.13706,293.15182 569.98345,293.18427 569.23514,292.00196 C 567.84923,289.81227 563.29206,293.26328 561.29832,298.01229 C 559.96507,301.18802 559.16001,301.90442 556.91511,301.91272 C 555.13281,301.91931 554.16511,301.39505 554.16511,300.42289 C 554.16511,299.59789 553.67555,298.92289 553.0772,298.92289 C 552.37356,298.92289 552.19295,300.424 552.56584,303.17289 L 553.14238,307.42289 L 551.75861,303.42289 L 550.37482,299.42289 L 550.26995,303.58956 C 550.21086,305.93841 549.61975,307.94733 548.91511,308.19426 C 548.22761,308.43518 551.8276,308.97045 556.91511,309.38375 C 562.00261,309.79706 566.16511,310.58559 566.16511,311.13604 C 566.16511,311.6865 566.8401,311.87785 567.66511,311.56126 C 568.4901,311.24468 569.16511,311.39024 569.16511,311.88472 C 569.16511,312.37921 570.1106,312.92759 571.26623,313.10334 C 573.10379,313.38281 572.74476,314.01092 568.40405,318.11072 C 565.67425,320.68903 563.04125,322.42696 562.55294,321.9728 z M 569.90321,309.51813 C 569.07821,308.69313 568.05294,308.3342 567.62482,308.72051 C 567.19672,309.10682 567.14315,308.59859 567.50577,307.5911 C 567.86841,306.58362 568.19667,304.33362 568.23523,302.5911 C 568.29716,299.79296 568.52316,300.0632 570.17001,304.90477 C 572.21452,310.91535 572.16454,311.77946 569.90321,309.51813 z M 536.16511,291.86387 C 536.16511,291.28141 536.6151,291.08297 537.16511,291.42289 C 537.7151,291.76281 538.16511,292.23937 538.16511,292.48191 C 538.16511,292.72445 537.7151,292.92289 537.16511,292.92289 C 536.6151,292.92289 536.16511,292.44633 536.16511,291.86387 z "
       id="path2565"
       sodipodi:nodetypes="cssssssssssccsssssccsssssssssssssssssccssssscccscsssssssscccccsssssssccssssccsssc" />
  </g>
  <flowRoot
     xml:space="preserve"
     id="flowRoot3596"
     style="font-size:144px;font-family:hlv"
     transform="translate(-752.6089,-418.0564)"><flowRegion
       id="flowRegion3598"><rect
         id="rect3600"
         width="375.71429"
         height="158.57143"
         x="44.285713"
         y="210.93361"
         style="font-size:144px;font-family:hlv" /></flowRegion><flowPara
       id="flowPara3602">HFRR</flowPara></flowRoot></svg>
